<svg width="428" height="428" viewBox="0 0 428 428" fill="none" xmlns="http://www.w3.org/2000/svg">
<g filter="url(#filter0_d_2356_7588)">
<path fill-rule="evenodd" clip-rule="evenodd" d="M123.413 40H304.587C352.351 40 372 59.6486 372 107.413V288.587C372 336.351 352.351 356 304.587 356H123.413C75.6486 356 56 336.351 56 288.587V107.413C56 59.6486 75.6486 40 123.413 40Z" fill="#F3F5FC"/>
</g>
<path d="M125.36 212.32C123.227 212.32 121.187 212 119.24 211.36C117.293 210.693 115.76 209.84 114.64 208.8L116.12 205.68C117.187 206.613 118.547 207.387 120.2 208C121.853 208.613 123.573 208.92 125.36 208.92C126.987 208.92 128.307 208.733 129.32 208.36C130.333 207.987 131.08 207.48 131.56 206.84C132.04 206.173 132.28 205.427 132.28 204.6C132.28 203.64 131.96 202.867 131.32 202.28C130.707 201.693 129.893 201.227 128.88 200.88C127.893 200.507 126.8 200.187 125.6 199.92C124.4 199.653 123.187 199.347 121.96 199C120.76 198.627 119.653 198.16 118.64 197.6C117.653 197.04 116.853 196.293 116.24 195.36C115.627 194.4 115.32 193.173 115.32 191.68C115.32 190.24 115.693 188.92 116.44 187.72C117.213 186.493 118.387 185.52 119.96 184.8C121.56 184.053 123.587 183.68 126.04 183.68C127.667 183.68 129.28 183.893 130.88 184.32C132.48 184.747 133.867 185.36 135.04 186.16L133.72 189.36C132.52 188.56 131.253 187.987 129.92 187.64C128.587 187.267 127.293 187.08 126.04 187.08C124.467 187.08 123.173 187.28 122.16 187.68C121.147 188.08 120.4 188.613 119.92 189.28C119.467 189.947 119.24 190.693 119.24 191.52C119.24 192.507 119.547 193.293 120.16 193.88C120.8 194.467 121.613 194.933 122.6 195.28C123.613 195.627 124.72 195.947 125.92 196.24C127.12 196.507 128.32 196.813 129.52 197.16C130.747 197.507 131.853 197.96 132.84 198.52C133.853 199.08 134.667 199.827 135.28 200.76C135.893 201.693 136.2 202.893 136.2 204.36C136.2 205.773 135.813 207.093 135.04 208.32C134.267 209.52 133.067 210.493 131.44 211.24C129.84 211.96 127.813 212.32 125.36 212.32ZM141.484 212V182.32H145.324V212H141.484ZM162.096 212.24C159.829 212.24 157.829 211.773 156.096 210.84C154.389 209.907 153.056 208.627 152.096 207C151.162 205.373 150.696 203.507 150.696 201.4C150.696 199.293 151.149 197.427 152.056 195.8C152.989 194.173 154.256 192.907 155.856 192C157.482 191.067 159.309 190.6 161.336 190.6C163.389 190.6 165.202 191.053 166.776 191.96C168.349 192.867 169.576 194.147 170.456 195.8C171.362 197.427 171.816 199.333 171.816 201.52C171.816 201.68 171.802 201.867 171.776 202.08C171.776 202.293 171.762 202.493 171.736 202.68H153.696V199.92H169.736L168.176 200.88C168.202 199.52 167.922 198.307 167.336 197.24C166.749 196.173 165.936 195.347 164.896 194.76C163.882 194.147 162.696 193.84 161.336 193.84C160.002 193.84 158.816 194.147 157.776 194.76C156.736 195.347 155.922 196.187 155.336 197.28C154.749 198.347 154.456 199.573 154.456 200.96V201.6C154.456 203.013 154.776 204.28 155.416 205.4C156.082 206.493 157.002 207.347 158.176 207.96C159.349 208.573 160.696 208.88 162.216 208.88C163.469 208.88 164.602 208.667 165.616 208.24C166.656 207.813 167.562 207.173 168.336 206.32L170.456 208.8C169.496 209.92 168.296 210.773 166.856 211.36C165.442 211.947 163.856 212.24 162.096 212.24ZM186.588 212.24C184.321 212.24 182.321 211.773 180.588 210.84C178.881 209.907 177.548 208.627 176.588 207C175.654 205.373 175.188 203.507 175.188 201.4C175.188 199.293 175.641 197.427 176.548 195.8C177.481 194.173 178.748 192.907 180.348 192C181.974 191.067 183.801 190.6 185.828 190.6C187.881 190.6 189.694 191.053 191.268 191.96C192.841 192.867 194.068 194.147 194.948 195.8C195.854 197.427 196.308 199.333 196.308 201.52C196.308 201.68 196.294 201.867 196.268 202.08C196.268 202.293 196.254 202.493 196.228 202.68H178.188V199.92H194.228L192.668 200.88C192.694 199.52 192.414 198.307 191.828 197.24C191.241 196.173 190.428 195.347 189.388 194.76C188.374 194.147 187.188 193.84 185.828 193.84C184.494 193.84 183.308 194.147 182.268 194.76C181.228 195.347 180.414 196.187 179.828 197.28C179.241 198.347 178.948 199.573 178.948 200.96V201.6C178.948 203.013 179.268 204.28 179.908 205.4C180.574 206.493 181.494 207.347 182.668 207.96C183.841 208.573 185.188 208.88 186.708 208.88C187.961 208.88 189.094 208.667 190.108 208.24C191.148 207.813 192.054 207.173 192.828 206.32L194.948 208.8C193.988 209.92 192.788 210.773 191.348 211.36C189.934 211.947 188.348 212.24 186.588 212.24ZM204.76 206.88L204.84 201.96L217.04 190.8H221.68L212.32 200L210.24 201.76L204.76 206.88ZM201.64 212V182.32H205.48V212H201.64ZM217.84 212L209.52 201.68L212 198.6L222.56 212H217.84ZM239.329 212.32C237.196 212.32 235.223 211.973 233.409 211.28C231.623 210.56 230.063 209.56 228.729 208.28C227.423 206.973 226.396 205.453 225.649 203.72C224.903 201.987 224.529 200.08 224.529 198C224.529 195.92 224.903 194.013 225.649 192.28C226.396 190.547 227.436 189.04 228.769 187.76C230.103 186.453 231.663 185.453 233.449 184.76C235.263 184.04 237.236 183.68 239.369 183.68C241.529 183.68 243.516 184.053 245.329 184.8C247.169 185.52 248.729 186.6 250.009 188.04L247.409 190.56C246.343 189.44 245.143 188.613 243.809 188.08C242.476 187.52 241.049 187.24 239.529 187.24C237.956 187.24 236.489 187.507 235.129 188.04C233.796 188.573 232.636 189.32 231.649 190.28C230.663 191.24 229.889 192.387 229.329 193.72C228.796 195.027 228.529 196.453 228.529 198C228.529 199.547 228.796 200.987 229.329 202.32C229.889 203.627 230.663 204.76 231.649 205.72C232.636 206.68 233.796 207.427 235.129 207.96C236.489 208.493 237.956 208.76 239.529 208.76C241.049 208.76 242.476 208.493 243.809 207.96C245.143 207.4 246.343 206.547 247.409 205.4L250.009 207.92C248.729 209.36 247.169 210.453 245.329 211.2C243.516 211.947 241.516 212.32 239.329 212.32ZM267.652 212V207.52L267.452 206.68V199.04C267.452 197.413 266.972 196.16 266.012 195.28C265.078 194.373 263.665 193.92 261.772 193.92C260.518 193.92 259.292 194.133 258.092 194.56C256.892 194.96 255.878 195.507 255.052 196.2L253.452 193.32C254.545 192.44 255.852 191.773 257.372 191.32C258.918 190.84 260.532 190.6 262.212 190.6C265.118 190.6 267.358 191.307 268.932 192.72C270.505 194.133 271.292 196.293 271.292 199.2V212H267.652ZM260.692 212.24C259.118 212.24 257.732 211.973 256.532 211.44C255.358 210.907 254.452 210.173 253.812 209.24C253.172 208.28 252.852 207.2 252.852 206C252.852 204.853 253.118 203.813 253.652 202.88C254.212 201.947 255.105 201.2 256.332 200.64C257.585 200.08 259.265 199.8 261.372 199.8H268.092V202.56H261.532C259.612 202.56 258.318 202.88 257.652 203.52C256.985 204.16 256.652 204.933 256.652 205.84C256.652 206.88 257.065 207.72 257.892 208.36C258.718 208.973 259.865 209.28 261.332 209.28C262.772 209.28 264.025 208.96 265.092 208.32C266.185 207.68 266.972 206.747 267.452 205.52L268.212 208.16C267.705 209.413 266.812 210.413 265.532 211.16C264.252 211.88 262.638 212.24 260.692 212.24ZM278.398 212V190.8H282.078V196.56L281.718 195.12C282.304 193.653 283.291 192.533 284.678 191.76C286.064 190.987 287.771 190.6 289.798 190.6V194.32C289.638 194.293 289.478 194.28 289.318 194.28C289.184 194.28 289.051 194.28 288.918 194.28C286.864 194.28 285.238 194.893 284.038 196.12C282.838 197.347 282.238 199.12 282.238 201.44V212H278.398ZM303.775 212.24C301.509 212.24 299.509 211.773 297.775 210.84C296.069 209.907 294.735 208.627 293.775 207C292.842 205.373 292.375 203.507 292.375 201.4C292.375 199.293 292.829 197.427 293.735 195.8C294.669 194.173 295.935 192.907 297.535 192C299.162 191.067 300.989 190.6 303.015 190.6C305.069 190.6 306.882 191.053 308.455 191.96C310.029 192.867 311.255 194.147 312.135 195.8C313.042 197.427 313.495 199.333 313.495 201.52C313.495 201.68 313.482 201.867 313.455 202.08C313.455 202.293 313.442 202.493 313.415 202.68H295.375V199.92H311.415L309.855 200.88C309.882 199.52 309.602 198.307 309.015 197.24C308.429 196.173 307.615 195.347 306.575 194.76C305.562 194.147 304.375 193.84 303.015 193.84C301.682 193.84 300.495 194.147 299.455 194.76C298.415 195.347 297.602 196.187 297.015 197.28C296.429 198.347 296.135 199.573 296.135 200.96V201.6C296.135 203.013 296.455 204.28 297.095 205.4C297.762 206.493 298.682 207.347 299.855 207.96C301.029 208.573 302.375 208.88 303.895 208.88C305.149 208.88 306.282 208.667 307.295 208.24C308.335 207.813 309.242 207.173 310.015 206.32L312.135 208.8C311.175 209.92 309.975 210.773 308.535 211.36C307.122 211.947 305.535 212.24 303.775 212.24Z" fill="black"/>
<path d="M133.891 238V226.8H138.259C139.24 226.8 140.078 226.955 140.771 227.264C141.464 227.573 141.998 228.021 142.371 228.608C142.744 229.195 142.931 229.893 142.931 230.704C142.931 231.515 142.744 232.213 142.371 232.8C141.998 233.376 141.464 233.824 140.771 234.144C140.078 234.453 139.24 234.608 138.259 234.608H134.771L135.491 233.856V238H133.891ZM135.491 234.016L134.771 233.216H138.211C139.235 233.216 140.008 232.997 140.531 232.56C141.064 232.123 141.331 231.504 141.331 230.704C141.331 229.904 141.064 229.285 140.531 228.848C140.008 228.411 139.235 228.192 138.211 228.192H134.771L135.491 227.392V234.016ZM144.901 238V229.52H146.373V231.824L146.229 231.248C146.464 230.661 146.859 230.213 147.413 229.904C147.968 229.595 148.651 229.44 149.461 229.44V230.928C149.397 230.917 149.333 230.912 149.269 230.912C149.216 230.912 149.163 230.912 149.109 230.912C148.288 230.912 147.637 231.157 147.157 231.648C146.677 232.139 146.437 232.848 146.437 233.776V238H144.901ZM156.025 238V236.208L155.945 235.872V232.816C155.945 232.165 155.753 231.664 155.369 231.312C154.995 230.949 154.43 230.768 153.673 230.768C153.171 230.768 152.681 230.853 152.201 231.024C151.721 231.184 151.315 231.403 150.985 231.68L150.345 230.528C150.782 230.176 151.305 229.909 151.913 229.728C152.531 229.536 153.177 229.44 153.849 229.44C155.011 229.44 155.907 229.723 156.537 230.288C157.166 230.853 157.481 231.717 157.481 232.88V238H156.025ZM153.241 238.096C152.611 238.096 152.057 237.989 151.577 237.776C151.107 237.563 150.745 237.269 150.489 236.896C150.233 236.512 150.105 236.08 150.105 235.6C150.105 235.141 150.211 234.725 150.425 234.352C150.649 233.979 151.006 233.68 151.497 233.456C151.998 233.232 152.67 233.12 153.513 233.12H156.201V234.224H153.577C152.809 234.224 152.291 234.352 152.025 234.608C151.758 234.864 151.625 235.173 151.625 235.536C151.625 235.952 151.79 236.288 152.121 236.544C152.451 236.789 152.91 236.912 153.497 236.912C154.073 236.912 154.574 236.784 155.001 236.528C155.438 236.272 155.753 235.899 155.945 235.408L156.249 236.464C156.046 236.965 155.689 237.365 155.177 237.664C154.665 237.952 154.019 238.096 153.241 238.096ZM164.019 238.096C163.155 238.096 162.382 237.909 161.699 237.536C161.027 237.163 160.499 236.651 160.115 236C159.731 235.349 159.539 234.603 159.539 233.76C159.539 232.917 159.731 232.171 160.115 231.52C160.499 230.869 161.027 230.363 161.699 230C162.382 229.627 163.155 229.44 164.019 229.44C164.787 229.44 165.47 229.595 166.067 229.904C166.675 230.203 167.145 230.651 167.475 231.248L166.307 232C166.03 231.584 165.689 231.28 165.283 231.088C164.889 230.885 164.462 230.784 164.003 230.784C163.449 230.784 162.953 230.907 162.515 231.152C162.078 231.397 161.731 231.744 161.475 232.192C161.219 232.629 161.091 233.152 161.091 233.76C161.091 234.368 161.219 234.896 161.475 235.344C161.731 235.792 162.078 236.139 162.515 236.384C162.953 236.629 163.449 236.752 164.003 236.752C164.462 236.752 164.889 236.656 165.283 236.464C165.689 236.261 166.03 235.952 166.307 235.536L167.475 236.272C167.145 236.859 166.675 237.312 166.067 237.632C165.47 237.941 164.787 238.096 164.019 238.096ZM172.485 238.096C171.632 238.096 170.971 237.867 170.501 237.408C170.032 236.949 169.797 236.293 169.797 235.44V227.664H171.333V235.376C171.333 235.835 171.445 236.187 171.669 236.432C171.904 236.677 172.235 236.8 172.661 236.8C173.141 236.8 173.541 236.667 173.861 236.4L174.341 237.504C174.107 237.707 173.824 237.856 173.493 237.952C173.173 238.048 172.837 238.096 172.485 238.096ZM168.357 230.784V229.52H173.765V230.784H168.357ZM176.198 238V229.52H177.734V238H176.198ZM176.966 227.888C176.668 227.888 176.417 227.792 176.214 227.6C176.022 227.408 175.926 227.173 175.926 226.896C175.926 226.608 176.022 226.368 176.214 226.176C176.417 225.984 176.668 225.888 176.966 225.888C177.265 225.888 177.51 225.984 177.702 226.176C177.905 226.357 178.006 226.587 178.006 226.864C178.006 227.152 177.91 227.397 177.718 227.6C177.526 227.792 177.276 227.888 176.966 227.888ZM184.363 238.096C183.499 238.096 182.726 237.909 182.043 237.536C181.371 237.163 180.843 236.651 180.459 236C180.075 235.349 179.883 234.603 179.883 233.76C179.883 232.917 180.075 232.171 180.459 231.52C180.843 230.869 181.371 230.363 182.043 230C182.726 229.627 183.499 229.44 184.363 229.44C185.131 229.44 185.814 229.595 186.411 229.904C187.019 230.203 187.488 230.651 187.819 231.248L186.651 232C186.374 231.584 186.032 231.28 185.627 231.088C185.232 230.885 184.806 230.784 184.347 230.784C183.792 230.784 183.296 230.907 182.859 231.152C182.422 231.397 182.075 231.744 181.819 232.192C181.563 232.629 181.435 233.152 181.435 233.76C181.435 234.368 181.563 234.896 181.819 235.344C182.075 235.792 182.422 236.139 182.859 236.384C183.296 236.629 183.792 236.752 184.347 236.752C184.806 236.752 185.232 236.656 185.627 236.464C186.032 236.261 186.374 235.952 186.651 235.536L187.819 236.272C187.488 236.859 187.019 237.312 186.411 237.632C185.814 237.941 185.131 238.096 184.363 238.096ZM193.459 238.096C192.552 238.096 191.752 237.909 191.059 237.536C190.376 237.163 189.843 236.651 189.459 236C189.085 235.349 188.899 234.603 188.899 233.76C188.899 232.917 189.08 232.171 189.443 231.52C189.816 230.869 190.323 230.363 190.963 230C191.613 229.627 192.344 229.44 193.155 229.44C193.976 229.44 194.701 229.621 195.331 229.984C195.96 230.347 196.451 230.859 196.803 231.52C197.165 232.171 197.347 232.933 197.347 233.808C197.347 233.872 197.341 233.947 197.331 234.032C197.331 234.117 197.325 234.197 197.315 234.272H190.099V233.168H196.515L195.891 233.552C195.901 233.008 195.789 232.523 195.555 232.096C195.32 231.669 194.995 231.339 194.579 231.104C194.173 230.859 193.699 230.736 193.155 230.736C192.621 230.736 192.147 230.859 191.731 231.104C191.315 231.339 190.989 231.675 190.755 232.112C190.52 232.539 190.403 233.029 190.403 233.584V233.84C190.403 234.405 190.531 234.912 190.787 235.36C191.053 235.797 191.421 236.139 191.891 236.384C192.36 236.629 192.899 236.752 193.507 236.752C194.008 236.752 194.461 236.667 194.867 236.496C195.283 236.325 195.645 236.069 195.955 235.728L196.803 236.72C196.419 237.168 195.939 237.509 195.363 237.744C194.797 237.979 194.163 238.096 193.459 238.096ZM204 238V226.8H208.368C209.819 226.8 210.96 227.147 211.792 227.84C212.624 228.523 213.04 229.477 213.04 230.704C213.04 231.515 212.854 232.213 212.48 232.8C212.107 233.376 211.574 233.819 210.88 234.128C210.187 234.437 209.35 234.592 208.368 234.592H204.88L205.6 233.856V238H204ZM211.488 238L208.64 233.936H210.352L213.232 238H211.488ZM205.6 234.016L204.88 233.232H208.32C209.344 233.232 210.118 233.013 210.64 232.576C211.174 232.128 211.44 231.504 211.44 230.704C211.44 229.904 211.174 229.285 210.64 228.848C210.118 228.411 209.344 228.192 208.32 228.192H204.88L205.6 227.392V234.016ZM219.177 238.096C218.271 238.096 217.471 237.909 216.777 237.536C216.095 237.163 215.561 236.651 215.177 236C214.804 235.349 214.617 234.603 214.617 233.76C214.617 232.917 214.799 232.171 215.161 231.52C215.535 230.869 216.041 230.363 216.681 230C217.332 229.627 218.063 229.44 218.873 229.44C219.695 229.44 220.42 229.621 221.049 229.984C221.679 230.347 222.169 230.859 222.521 231.52C222.884 232.171 223.065 232.933 223.065 233.808C223.065 233.872 223.06 233.947 223.049 234.032C223.049 234.117 223.044 234.197 223.033 234.272H215.817V233.168H222.233L221.609 233.552C221.62 233.008 221.508 232.523 221.273 232.096C221.039 231.669 220.713 231.339 220.297 231.104C219.892 230.859 219.417 230.736 218.873 230.736C218.34 230.736 217.865 230.859 217.449 231.104C217.033 231.339 216.708 231.675 216.473 232.112C216.239 232.539 216.121 233.029 216.121 233.584V233.84C216.121 234.405 216.249 234.912 216.505 235.36C216.772 235.797 217.14 236.139 217.609 236.384C218.079 236.629 218.617 236.752 219.225 236.752C219.727 236.752 220.18 236.667 220.585 236.496C221.001 236.325 221.364 236.069 221.673 235.728L222.521 236.72C222.137 237.168 221.657 237.509 221.081 237.744C220.516 237.979 219.881 238.096 219.177 238.096ZM225.198 238V229.52H226.734V238H225.198ZM225.966 227.888C225.668 227.888 225.417 227.792 225.214 227.6C225.022 227.408 224.926 227.173 224.926 226.896C224.926 226.608 225.022 226.368 225.214 226.176C225.417 225.984 225.668 225.888 225.966 225.888C226.265 225.888 226.51 225.984 226.702 226.176C226.905 226.357 227.006 226.587 227.006 226.864C227.006 227.152 226.91 227.397 226.718 227.6C226.526 227.792 226.276 227.888 225.966 227.888ZM229.667 238V229.52H231.139V231.776L230.899 231.2C231.166 230.645 231.576 230.213 232.131 229.904C232.686 229.595 233.331 229.44 234.067 229.44C234.878 229.44 235.576 229.643 236.163 230.048C236.75 230.443 237.134 231.045 237.315 231.856L236.691 231.6C236.947 230.949 237.395 230.427 238.035 230.032C238.675 229.637 239.422 229.44 240.275 229.44C240.958 229.44 241.56 229.573 242.083 229.84C242.606 230.107 243.011 230.512 243.299 231.056C243.598 231.6 243.747 232.288 243.747 233.12V238H242.211V233.296C242.211 232.475 242.019 231.856 241.635 231.44C241.251 231.024 240.712 230.816 240.019 230.816C239.507 230.816 239.059 230.923 238.675 231.136C238.291 231.349 237.992 231.664 237.779 232.08C237.576 232.496 237.475 233.013 237.475 233.632V238H235.939V233.296C235.939 232.475 235.747 231.856 235.363 231.44C234.99 231.024 234.451 230.816 233.747 230.816C233.246 230.816 232.803 230.923 232.419 231.136C232.035 231.349 231.736 231.664 231.523 232.08C231.31 232.496 231.203 233.013 231.203 233.632V238H229.667ZM251.837 238V236.208L251.757 235.872V232.816C251.757 232.165 251.565 231.664 251.181 231.312C250.808 230.949 250.243 230.768 249.485 230.768C248.984 230.768 248.493 230.853 248.013 231.024C247.533 231.184 247.128 231.403 246.797 231.68L246.157 230.528C246.595 230.176 247.117 229.909 247.725 229.728C248.344 229.536 248.989 229.44 249.661 229.44C250.824 229.44 251.72 229.723 252.349 230.288C252.979 230.853 253.293 231.717 253.293 232.88V238H251.837ZM249.053 238.096C248.424 238.096 247.869 237.989 247.389 237.776C246.92 237.563 246.557 237.269 246.301 236.896C246.045 236.512 245.917 236.08 245.917 235.6C245.917 235.141 246.024 234.725 246.237 234.352C246.461 233.979 246.819 233.68 247.309 233.456C247.811 233.232 248.483 233.12 249.325 233.12H252.013V234.224H249.389C248.621 234.224 248.104 234.352 247.837 234.608C247.571 234.864 247.437 235.173 247.437 235.536C247.437 235.952 247.603 236.288 247.933 236.544C248.264 236.789 248.723 236.912 249.309 236.912C249.885 236.912 250.387 236.784 250.813 236.528C251.251 236.272 251.565 235.899 251.757 235.408L252.061 236.464C251.859 236.965 251.501 237.365 250.989 237.664C250.477 237.952 249.832 238.096 249.053 238.096ZM259.848 241.2C259.069 241.2 258.312 241.088 257.576 240.864C256.85 240.651 256.258 240.341 255.8 239.936L256.536 238.752C256.93 239.093 257.416 239.36 257.992 239.552C258.568 239.755 259.17 239.856 259.8 239.856C260.802 239.856 261.538 239.621 262.008 239.152C262.477 238.683 262.712 237.968 262.712 237.008V235.216L262.872 233.536L262.792 231.84V229.52H264.248V236.848C264.248 238.341 263.874 239.44 263.128 240.144C262.381 240.848 261.288 241.2 259.848 241.2ZM259.656 237.648C258.834 237.648 258.098 237.477 257.448 237.136C256.808 236.784 256.296 236.299 255.912 235.68C255.538 235.061 255.352 234.347 255.352 233.536C255.352 232.715 255.538 232 255.912 231.392C256.296 230.773 256.808 230.293 257.448 229.952C258.098 229.611 258.834 229.44 259.656 229.44C260.381 229.44 261.042 229.589 261.64 229.888C262.237 230.176 262.712 230.624 263.064 231.232C263.426 231.84 263.608 232.608 263.608 233.536C263.608 234.453 263.426 235.216 263.064 235.824C262.712 236.432 262.237 236.891 261.64 237.2C261.042 237.499 260.381 237.648 259.656 237.648ZM259.832 236.304C260.397 236.304 260.898 236.187 261.336 235.952C261.773 235.717 262.114 235.392 262.36 234.976C262.616 234.56 262.744 234.08 262.744 233.536C262.744 232.992 262.616 232.512 262.36 232.096C262.114 231.68 261.773 231.36 261.336 231.136C260.898 230.901 260.397 230.784 259.832 230.784C259.266 230.784 258.76 230.901 258.312 231.136C257.874 231.36 257.528 231.68 257.272 232.096C257.026 232.512 256.904 232.992 256.904 233.536C256.904 234.08 257.026 234.56 257.272 234.976C257.528 235.392 257.874 235.717 258.312 235.952C258.76 236.187 259.266 236.304 259.832 236.304ZM267.183 238V229.52H268.719V238H267.183ZM267.951 227.888C267.652 227.888 267.401 227.792 267.199 227.6C267.007 227.408 266.911 227.173 266.911 226.896C266.911 226.608 267.007 226.368 267.199 226.176C267.401 225.984 267.652 225.888 267.951 225.888C268.249 225.888 268.495 225.984 268.687 226.176C268.889 226.357 268.991 226.587 268.991 226.864C268.991 227.152 268.895 227.397 268.703 227.6C268.511 227.792 268.26 227.888 267.951 227.888ZM271.651 238V229.52H273.123V231.808L272.883 231.2C273.161 230.645 273.587 230.213 274.163 229.904C274.739 229.595 275.411 229.44 276.179 229.44C276.873 229.44 277.481 229.573 278.003 229.84C278.537 230.107 278.953 230.512 279.251 231.056C279.55 231.6 279.699 232.288 279.699 233.12V238H278.163V233.296C278.163 232.475 277.961 231.856 277.555 231.44C277.161 231.024 276.601 230.816 275.875 230.816C275.331 230.816 274.857 230.923 274.451 231.136C274.046 231.349 273.731 231.664 273.507 232.08C273.294 232.496 273.187 233.013 273.187 233.632V238H271.651ZM286.318 238.096C285.411 238.096 284.611 237.909 283.918 237.536C283.235 237.163 282.702 236.651 282.318 236C281.945 235.349 281.758 234.603 281.758 233.76C281.758 232.917 281.939 232.171 282.302 231.52C282.675 230.869 283.182 230.363 283.822 230C284.473 229.627 285.203 229.44 286.014 229.44C286.835 229.44 287.561 229.621 288.19 229.984C288.819 230.347 289.31 230.859 289.662 231.52C290.025 232.171 290.206 232.933 290.206 233.808C290.206 233.872 290.201 233.947 290.19 234.032C290.19 234.117 290.185 234.197 290.174 234.272H282.958V233.168H289.374L288.75 233.552C288.761 233.008 288.649 232.523 288.414 232.096C288.179 231.669 287.854 231.339 287.438 231.104C287.033 230.859 286.558 230.736 286.014 230.736C285.481 230.736 285.006 230.859 284.59 231.104C284.174 231.339 283.849 231.675 283.614 232.112C283.379 232.539 283.262 233.029 283.262 233.584V233.84C283.262 234.405 283.39 234.912 283.646 235.36C283.913 235.797 284.281 236.139 284.75 236.384C285.219 236.629 285.758 236.752 286.366 236.752C286.867 236.752 287.321 236.667 287.726 236.496C288.142 236.325 288.505 236.069 288.814 235.728L289.662 236.72C289.278 237.168 288.798 237.509 288.222 237.744C287.657 237.979 287.022 238.096 286.318 238.096ZM295.843 238.096C295.021 238.096 294.285 237.915 293.635 237.552C292.995 237.189 292.488 236.683 292.115 236.032C291.741 235.381 291.555 234.624 291.555 233.76C291.555 232.896 291.741 232.144 292.115 231.504C292.488 230.853 292.995 230.347 293.635 229.984C294.285 229.621 295.021 229.44 295.843 229.44C296.557 229.44 297.203 229.6 297.779 229.92C298.355 230.24 298.813 230.72 299.155 231.36C299.507 232 299.683 232.8 299.683 233.76C299.683 234.72 299.512 235.52 299.171 236.16C298.84 236.8 298.387 237.285 297.811 237.616C297.235 237.936 296.579 238.096 295.843 238.096ZM295.971 236.752C296.504 236.752 296.984 236.629 297.411 236.384C297.848 236.139 298.189 235.792 298.435 235.344C298.691 234.885 298.819 234.357 298.819 233.76C298.819 233.152 298.691 232.629 298.435 232.192C298.189 231.744 297.848 231.397 297.411 231.152C296.984 230.907 296.504 230.784 295.971 230.784C295.427 230.784 294.941 230.907 294.515 231.152C294.088 231.397 293.747 231.744 293.491 232.192C293.235 232.629 293.107 233.152 293.107 233.76C293.107 234.357 293.235 234.885 293.491 235.344C293.747 235.792 294.088 236.139 294.515 236.384C294.941 236.629 295.427 236.752 295.971 236.752ZM298.867 238V235.712L298.963 233.744L298.803 231.776V226.128H300.339V238H298.867Z" fill="black"/>
<defs>
<filter id="filter0_d_2356_7588" x="0" y="0" width="428" height="428" filterUnits="userSpaceOnUse" color-interpolation-filters="sRGB">
<feFlood flood-opacity="0" result="BackgroundImageFix"/>
<feColorMatrix in="SourceAlpha" type="matrix" values="0 0 0 0 0 0 0 0 0 0 0 0 0 0 0 0 0 0 127 0" result="hardAlpha"/>
<feOffset dy="16"/>
<feGaussianBlur stdDeviation="28"/>
<feColorMatrix type="matrix" values="0 0 0 0 0.172549 0 0 0 0 0.152941 0 0 0 0 0.219608 0 0 0 0.08 0"/>
<feBlend mode="normal" in2="BackgroundImageFix" result="effect1_dropShadow_2356_7588"/>
<feBlend mode="normal" in="SourceGraphic" in2="effect1_dropShadow_2356_7588" result="shape"/>
</filter>
</defs>
</svg>
